<?xml version="1.0" encoding="utf-8"?>
<!-- Generator: Adobe Illustrator 27.5.0, SVG Export Plug-In . SVG Version: 6.00 Build 0)  -->
<svg version="1.1" id="Layer_1" xmlns="http://www.w3.org/2000/svg" xmlns:xlink="http://www.w3.org/1999/xlink" width="32px" height="32px" x="0px" y="0px"
	 viewBox="0 0 32 32" style="enable-background:new 0 0 32 32;" xml:space="preserve">
<style type="text/css">
	.st0{fill:#231F20;}
</style>
<g>
	<path class="st0" d="M9.2,29.6L2,21.8L22.8,2.4l7.2,7.8L9.2,29.6z M3.7,21.9l5.6,6l19.1-17.7l-5.6-6L3.7,21.9z"/>
	<path class="st0" d="M29.2,10.8c-0.2,0-0.3-0.1-0.4-0.2l-6.4-6.9c-0.2-0.2-0.2-0.6,0-0.8l2.1-2c0.2-0.2,0.4-0.2,0.7-0.1
		c0.2,0.1,0.4,0.3,0.4,0.6V3l1.7,0.1c0.2,0,0.3,0.1,0.4,0.2c0.1,0.1,0.2,0.3,0.1,0.5l-0.2,1.3L29,5.1c0.2,0,0.3,0.1,0.5,0.2
		c0.1,0.1,0.2,0.3,0.2,0.5l-0.1,1.6l1.9,0.2c0.2,0,0.4,0.2,0.5,0.4c0.1,0.2,0,0.5-0.2,0.6l-2.2,2C29.5,10.7,29.3,10.8,29.2,10.8z
		 M23.6,3.3l5.6,6L30,8.6l-1.2-0.1c-0.3,0-0.5-0.3-0.5-0.6l0.1-1.5L27,6.4c-0.2,0-0.3-0.1-0.5-0.2c-0.1-0.1-0.2-0.3-0.2-0.5l0.2-1.4
		l-1.7-0.1c-0.3,0-0.6-0.3-0.6-0.6V2.7L23.6,3.3z"/>
	<path class="st0" d="M7.1,31.3c-0.1,0-0.2,0-0.2,0c-0.2-0.1-0.4-0.3-0.4-0.6l0-1.7l-1.7-0.1c-0.2,0-0.3-0.1-0.4-0.2
		c-0.1-0.1-0.2-0.3-0.1-0.5l0.2-1.3L3,26.9c-0.2,0-0.3-0.1-0.5-0.2c-0.1-0.1-0.2-0.3-0.2-0.5l0.1-1.6l-1.9-0.2
		c-0.2,0-0.4-0.2-0.5-0.4c-0.1-0.2,0-0.5,0.2-0.6l2.2-2c0.2-0.2,0.6-0.2,0.8,0l6.4,6.9c0.2,0.2,0.2,0.6,0,0.8l-2.1,2
		C7.4,31.3,7.3,31.3,7.1,31.3z M5.5,27.7l1.7,0.1c0.3,0,0.6,0.3,0.6,0.6v0.9l0.7-0.6l-5.6-6L2,23.4l1.2,0.1c0.3,0,0.5,0.3,0.5,0.6
		l-0.1,1.5L5,25.6c0.2,0,0.4,0.1,0.5,0.2c0.1,0.1,0.2,0.3,0.2,0.5L5.5,27.7z"/>
</g>
</svg>
